# xmcd
#
# Track frame offsets:
#	150
#	16867
#	32527
#	49290
#	64677
#	80467
#	93450
#	116722
#	133035
#	144310
#	158760
#	177547
#	190082
#	204755
#	221477
#	238240
#	254030
#	267045
#	292672
#
# Disc length: 4440 seconds
#
# Revision: 1
# Processed by: cddbd v1.5.2PL0 Copyright (c) Steve Scherf et al.
# Submitted via: audiograbber 1.83.01
#
DISCID=0c115613
DTITLE=Freddy Birset - Mein Französischer Traum
DYEAR=2002
DGENRE=Blues
TTITLE0=Spiel nicht mit mir und meinem Glück
TTITLE1=Capri C'est Fini
TTITLE2=Überall blühen Rosen
TTITLE3=Das bleibt immer ein Geheimnis
TTITLE4=So gib mir heute deine Hand
TTITLE5=Oh Champs Elys'ees
TTITLE6=Inch Allah
TTITLE7=Was wird aus mir
TTITLE8=Der Vagabund
TTITLE9=Alter Clochard
TTITLE10=Nathalie
TTITLE11=Aline
TTITLE12=Halte deinen Atem an
TTITLE13=Si tu T'Appelles Melancholie
TTITLE14=L' Important C'est la Rose
TTITLE15=Donne-Molta Main
TTITLE16=Les Champs Elysees
TTITLE17=Le Chlochard
TTITLE18=Daten-CD
EXTD=
EXTT0=
EXTT1=
EXTT2=
EXTT3=
EXTT4=
EXTT5=
EXTT6=
EXTT7=
EXTT8=
EXTT9=
EXTT10=
EXTT11=
EXTT12=
EXTT13=
EXTT14=
EXTT15=
EXTT16=
EXTT17=
EXTT18=
PLAYORDER=
